HIERARCHY
ROOT reference
{
  OFFSET -65.3212 -1.93545 -120.338
  CHANNELS 6 Xposition Yposition Zposition Zrotation Xrotation Yrotation
  JOINT Hips
  {
    OFFSET 0 78.7191 0
    CHANNELS 6 Xposition Yposition Zposition Zrotation Xrotation Yrotation
    JOINT Chest
    {
      OFFSET 0 8.7983 -4.7612
      CHANNELS 6 Xposition Yposition Zposition Zrotation Xrotation Yrotation
      JOINT Chest2
      {
        OFFSET 0 8.0291 0.4195
        CHANNELS 6 Xposition Yposition Zposition Zrotation Xrotation Yrotation
        JOINT Chest3
        {
          OFFSET 0 9.9351 -2.2114
          CHANNELS 6 Xposition Yposition Zposition Zrotation Xrotation Yrotation
          JOINT Neck
          {
            OFFSET 0 22.3885 -0.4656
            CHANNELS 6 Xposition Yposition Zposition Zrotation Xrotation Yrotation
            JOINT Head
            {
              OFFSET -0.0001 12.643 3.4389
              CHANNELS 6 Xposition Yposition Zposition Zrotation Xrotation Yrotation
              End Site
              {
                OFFSET 0.0001 17.6655 0.5274
              }
            }
          }
          JOINT LeftCollar
          {
            OFFSET 2.2603 21.606 7.4023
            CHANNELS 6 Xposition Yposition Zposition Zrotation Xrotation Yrotation
            JOINT LeftShoulder
            {
              OFFSET 13.5163 -1.1332 -5.0146
              CHANNELS 6 Xposition Yposition Zposition Zrotation Xrotation Yrotation
              JOINT LeftElbow
              {
                OFFSET -0.0995 -28.05 -0.2431
                CHANNELS 6 Xposition Yposition Zposition Zrotation Xrotation Yrotation
                JOINT LeftWrist
                {
                  OFFSET 0.0679 -23.3996 -0.1402
                  CHANNELS 6 Xposition Yposition Zposition Zrotation Xrotation Yrotation
                  JOINT LeftFinger1
                  {
                    OFFSET 0.7932 -9.069 2.5189
                    CHANNELS 6 Xposition Yposition Zposition Zrotation Xrotation Yrotation
                    JOINT LeftFinger11
                    {
                      OFFSET -0.8272 -3.3923 0.5977
                      CHANNELS 6 Xposition Yposition Zposition Zrotation Xrotation Yrotation
                      JOINT LeftFinger12
                      {
                        OFFSET -0.5649 -2.3158 0.4082
                        CHANNELS 6 Xposition Yposition Zposition Zrotation Xrotation Yrotation
                        End Site
                        {
                          OFFSET -0.4919 -1.6479 0.2673
                        }
                      }
                    }
                  }
                  JOINT LeftFinger2
                  {
                    OFFSET 0.9159 -9.2044 0.2193
                    CHANNELS 6 Xposition Yposition Zposition Zrotation Xrotation Yrotation
                    JOINT LeftFinger21
                    {
                      OFFSET 0.0117 -4.1944 -0.0248
                      CHANNELS 6 Xposition Yposition Zposition Zrotation Xrotation Yrotation
                      JOINT LeftFinger22
                      {
                        OFFSET 0.0071 -2.3249 -0.0142
                        CHANNELS 6 Xposition Yposition Zposition Zrotation Xrotation Yrotation
                        End Site
                        {
                          OFFSET -0.1475 -2.0882 0.0028
                        }
                      }
                    }
                  }
                  JOINT LeftFinger3
                  {
                    OFFSET 0.6113 -8.7231 -2.0637
                    CHANNELS 6 Xposition Yposition Zposition Zrotation Xrotation Yrotation
                    JOINT LeftFinger31
                    {
                      OFFSET -0.1927 -3.8059 -0.2383
                      CHANNELS 6 Xposition Yposition Zposition Zrotation Xrotation Yrotation
                      JOINT LeftFinger32
                      {
                        OFFSET -0.1091 -2.1688 -0.1362
                        CHANNELS 6 Xposition Yposition Zposition Zrotation Xrotation Yrotation
                        End Site
                        {
                          OFFSET -0.2358 -1.9176 -0.0906
                        }
                      }
                    }
                  }
                  JOINT LeftFinger4
                  {
                    OFFSET -0.6151 -8.0947 -3.5641
                    CHANNELS 6 Xposition Yposition Zposition Zrotation Xrotation Yrotation
                    JOINT LeftFinger41
                    {
                      OFFSET -0.4882 -2.341 -0.6462
                      CHANNELS 6 Xposition Yposition Zposition Zrotation Xrotation Yrotation
                      JOINT LeftFinger42
                      {
                        OFFSET -0.3575 -1.7167 -0.4742
                        CHANNELS 6 Xposition Yposition Zposition Zrotation Xrotation Yrotation
                        End Site
                        {
                          OFFSET -0.4187 -1.5237 -0.3496
                        }
                      }
                    }
                  }
                  JOINT LeftFinger0
                  {
                    OFFSET -1.42 -1.8761 1.4223
                    CHANNELS 6 Xposition Yposition Zposition Zrotation Xrotation Yrotation
                    JOINT LeftFinger01
                    {
                      OFFSET -1.1471 -3.4929 2.6334
                      CHANNELS 6 Xposition Yposition Zposition Zrotation Xrotation Yrotation
                      JOINT LeftFinger02
                      {
                        OFFSET -0.823 -2.3 1.6571
                        CHANNELS 6 Xposition Yposition Zposition Zrotation Xrotation Yrotation
                        End Site
                        {
                          OFFSET -0.5822 -1.6914 1.1582
                        }
                      }
                    }
                  }
                }
              }
            }
          }
          JOINT RightCollar
          {
            OFFSET -2.2603 21.606 7.4023
            CHANNELS 6 Xposition Yposition Zposition Zrotation Xrotation Yrotation
            JOINT RightShoulder
            {
              OFFSET -13.5187 -1.1334 -5.0155
              CHANNELS 6 Xposition Yposition Zposition Zrotation Xrotation Yrotation
              JOINT RightElbow
              {
                OFFSET 0.0994 -28.0499 -0.2431
                CHANNELS 6 Xposition Yposition Zposition Zrotation Xrotation Yrotation
                JOINT RightWrist
                {
                  OFFSET -0.0679 -23.3996 -0.1402
                  CHANNELS 6 Xposition Yposition Zposition Zrotation Xrotation Yrotation
                  JOINT RightFinger1
                  {
                    OFFSET -0.7932 -9.0691 2.5189
                    CHANNELS 6 Xposition Yposition Zposition Zrotation Xrotation Yrotation
                    JOINT RightFinger11
                    {
                      OFFSET 0.8272 -3.3923 0.5977
                      CHANNELS 6 Xposition Yposition Zposition Zrotation Xrotation Yrotation
                      JOINT RightFinger12
                      {
                        OFFSET 0.565 -2.3158 0.4082
                        CHANNELS 6 Xposition Yposition Zposition Zrotation Xrotation Yrotation
                        End Site
                        {
                          OFFSET 0.4919 -1.6479 0.2673
                        }
                      }
                    }
                  }
                  JOINT RightFinger2
                  {
                    OFFSET -0.916 -9.2044 0.2193
                    CHANNELS 6 Xposition Yposition Zposition Zrotation Xrotation Yrotation
                    JOINT RightFinger21
                    {
                      OFFSET -0.0117 -4.1944 -0.0248
                      CHANNELS 6 Xposition Yposition Zposition Zrotation Xrotation Yrotation
                      JOINT RightFinger22
                      {
                        OFFSET -0.0071 -2.3249 -0.0142
                        CHANNELS 6 Xposition Yposition Zposition Zrotation Xrotation Yrotation
                        End Site
                        {
                          OFFSET 0.1475 -2.0882 0.0028
                        }
                      }
                    }
                  }
                  JOINT RightFinger3
                  {
                    OFFSET -0.6113 -8.7231 -2.0637
                    CHANNELS 6 Xposition Yposition Zposition Zrotation Xrotation Yrotation
                    JOINT RightFinger31
                    {
                      OFFSET 0.1927 -3.8059 -0.2383
                      CHANNELS 6 Xposition Yposition Zposition Zrotation Xrotation Yrotation
                      JOINT RightFinger32
                      {
                        OFFSET 0.1091 -2.1688 -0.1362
                        CHANNELS 6 Xposition Yposition Zposition Zrotation Xrotation Yrotation
                        End Site
                        {
                          OFFSET 0.2358 -1.9176 -0.0906
                        }
                      }
                    }
                  }
                  JOINT RightFinger4
                  {
                    OFFSET 0.6151 -8.0947 -3.564
                    CHANNELS 6 Xposition Yposition Zposition Zrotation Xrotation Yrotation
                    JOINT RightFinger41
                    {
                      OFFSET 0.4882 -2.341 -0.6462
                      CHANNELS 6 Xposition Yposition Zposition Zrotation Xrotation Yrotation
                      JOINT RightFinger42
                      {
                        OFFSET 0.3574 -1.7166 -0.4742
                        CHANNELS 6 Xposition Yposition Zposition Zrotation Xrotation Yrotation
                        End Site
                        {
                          OFFSET 0.4187 -1.5237 -0.3496
                        }
                      }
                    }
                  }
                  JOINT RightFinger0
                  {
                    OFFSET 1.4199 -1.8761 1.4221
                    CHANNELS 6 Xposition Yposition Zposition Zrotation Xrotation Yrotation
                    JOINT RightFinger01
                    {
                      OFFSET 1.1472 -3.4929 2.6336
                      CHANNELS 6 Xposition Yposition Zposition Zrotation Xrotation Yrotation
                      JOINT RightFinger02
                      {
                        OFFSET 0.8229 -2.3 1.6571
                        CHANNELS 6 Xposition Yposition Zposition Zrotation Xrotation Yrotation
                        End Site
                        {
                          OFFSET 0.5822 -1.6914 1.1582
                        }
                      }
                    }
                  }
                }
              }
            }
          }
        }
      }
    }
    JOINT RightHip
    {
      OFFSET -9.412 3.9771 -0.7758
      CHANNELS 6 Xposition Yposition Zposition Zrotation Xrotation Yrotation
      JOINT RightKnee
      {
        OFFSET -0.7531 -40.938 0
        CHANNELS 6 Xposition Yposition Zposition Zrotation Xrotation Yrotation
        JOINT RightAnkle
        {
          OFFSET 0 -40.1986 0
          CHANNELS 6 Xposition Yposition Zposition Zrotation Xrotation Yrotation
          JOINT RightToe
          {
            OFFSET 0 -4.4182 9.239
            CHANNELS 6 Xposition Yposition Zposition Zrotation Xrotation Yrotation
            End Site
            {
              OFFSET 0 0 6.1981
            }
          }
        }
      }
    }
    JOINT LeftHip
    {
      OFFSET 9.4119 3.9773 -0.7758
      CHANNELS 6 Xposition Yposition Zposition Zrotation Xrotation Yrotation
      JOINT LeftKnee
      {
        OFFSET 0.7532 -40.9383 0
        CHANNELS 6 Xposition Yposition Zposition Zrotation Xrotation Yrotation
        JOINT LeftAnkle
        {
          OFFSET 0 -40.1986 0
          CHANNELS 6 Xposition Yposition Zposition Zrotation Xrotation Yrotation
          JOINT LeftToe
          {
            OFFSET 0 -4.4182 9.239
            CHANNELS 6 Xposition Yposition Zposition Zrotation Xrotation Yrotation
            End Site
            {
              OFFSET 0 0 6.1981
            }
          }
        }
      }
    }
  }
}
MOTION
Frames:	4
Frame Time:	0.0333333
4.70301 -0.360847 -1.69576 0 0 -0 4.44089e-015 78.7191 0 -2.73208e-005 -5.12264e-006 -1.70496e-006 8.88178e-016 8.7983 -4.7612 0.461405 -0.00365889 0.088778 -8.88179e-016 8.0291 0.4195 0.922816 -0.00660272 0.177583 8.88178e-016 9.9351 -2.2114 0.922805 -0.00660266 0.17758 -1.77636e-015 22.3885 -0.4656 -0.000412817 7.05463e-006 -7.68141e-005 -0.0001 12.643 3.4389 -1.92035e-006 -7.77605e-006 -4.69464e-006 2.2603 21.606 7.4023 -0.000407491 1.28811e-005 -12.5015 13.5163 -1.1332 -5.0146 11.0148 2.79758 17.5139 -0.0995 -28.05 -0.2431 -18.3386 -34.7379 -4.54928 0.0679 -23.3996 -0.1402 0.00187007 -0.000915916 0.000104286 0.7932 -9.069 2.5189 -1.21413e-005 3.49369e-007 6.14781e-006 -0.8272 -3.3923 0.5977 -8.90889e-006 2.77756e-006 -6.21356e-006 -0.5649 -2.3158 0.4082 1.95531e-005 -5.82981e-006 -4.9068e-006 0.9159 -9.2044 0.2193 3.41306e-007 5.38171e-006 -4.39695e-005 0.0117 -4.1944 -0.0248 -0.0128729 0.0023375 0.000109706 0.0071 -2.3249 -0.0142 2.01579e-005 -8.98343e-007 -4.3352e-006 0.6113 -8.7231 -2.0637 -4.03785e-006 2.60582e-006 -1.31154e-006 -0.1927 -3.8059 -0.2383 -0.0160475 0.00300429 0.000838785 -0.1091 -2.1688 -0.1362 8.04608e-006 -1.7827e-005 3.93927e-006 -0.6151 -8.0947 -3.5641 -6.97923e-007 -1.89861e-005 -2.34435e-005 -0.4882 -2.341 -0.6462 -0.0125719 0.003125 0.00282598 -0.3575 -1.7167 -0.4742 2.26351e-005 4.54296e-006 2.04288e-006 -1.42 -1.8761 1.4223 6.12316e-005 -2.73986e-005 -0.000163701 -1.1471 -3.4929 2.6334 -1.12347e-005 5.89253e-006 -1.47975e-006 -0.823 -2.3 1.6571 -1.20856e-005 -2.08887e-006 -4.00439e-006 -2.2603 21.606 7.4023 -0.866059 0.165823 7.03851 -13.5187 -1.1334 -5.0155 -10.833 8.09774 -22.7989 0.0994 -28.0499 -0.2431 12.6532 -29.8707 4.18762 -0.0679 -23.3996 -0.1402 -0.001308 -0.000709699 -0.000181138 -0.7932 -9.0691 2.5189 1.7311e-005 7.925e-006 -1.30585e-005 0.8272 -3.3923 0.5977 9.08918e-008 -7.76064e-006 -3.85165e-006 0.565 -2.3158 0.4082 -2.01903e-005 -9.08681e-007 4.35741e-006 -0.916 -9.2044 0.2193 1.51698e-005 4.59514e-006 3.30451e-006 -0.0117 -4.1944 -0.0248 0.0129663 0.00230966 -7.77216e-005 -0.0071 -2.3249 -0.0142 -5.46028e-006 6.93718e-006 -2.79076e-006 -0.6113 -8.7231 -2.0637 3.99218e-005 1.82327e-005 -3.10778e-006 0.1927 -3.8059 -0.2383 0.0163374 0.00303271 -0.000886908 0.1091 -2.1688 -0.1362 -1.89539e-006 -1.61723e-005 1.17874e-005 0.6151 -8.0947 -3.564 2.32642e-005 8.89296e-006 1.74514e-006 0.4882 -2.341 -0.6462 0.0145882 0.00368323 -0.00325074 0.3574 -1.7166 -0.4742 -7.13847e-006 7.48904e-006 -5.80623e-007 1.4199 -1.8761 1.4221 1.89047e-005 -4.21514e-006 -3.86227e-005 1.1472 -3.4929 2.6336 4.37034e-006 -1.04378e-006 1.31615e-005 0.8229 -2.3 1.6571 2.20156e-005 1.34626e-005 -2.28217e-006 -9.412 3.9771 -0.7758 -5.59591 3.26233 0.131636 -0.7531 -40.938 -8.88179e-016 -0.000509026 0.0877105 0.0192493 0 -40.1986 -8.88178e-016 5.59743 -3.34877 0.176706 -1.77636e-015 -4.4182 9.239 5.2934e-005 8.53728e-007 -1.19529e-005 9.4119 3.9773 -0.7758 -0.6687 -0.0869499 0.00902383 0.7532 -40.9383 -4.44089e-016 0.000227783 3.59338 0.00679673 0 -40.1986 0 0.669345 -3.50638 0.0251313 1.77636e-015 -4.4182 9.239 5.93373e-005 -8.53773e-006 1.36604e-005 
4.70224 -0.363396 -1.71468 0 0 -0 4.44089e-015 78.7191 0 0.00793386 0.203789 -0.00235687 8.88179e-016 8.7983 -4.7612 0.455594 -0.0474554 0.0894338 0 8.0291 0.4195 0.911262 -0.0941985 0.179242 0 9.9351 -2.2114 0.911263 -0.0941985 0.179242 0 22.3885 -0.4656 0.0308714 0.415467 -0.0163879 -0.0001 12.643 3.4389 0.0251838 0.400808 -0.0181058 2.2603 21.606 7.4023 -0.0058505 0.00408762 -12.4651 13.5163 -1.1332 -5.0146 11.0148 3.25096 18.0916 -0.0995 -28.05 -0.2431 -17.5742 -34.9982 -3.16606 0.0679 -23.3996 -0.1402 0.00632897 0.0145668 0.0772312 0.7932 -9.069 2.5189 0.00853643 -0.00102902 0.00152067 -0.8272 -3.3923 0.5977 -0.00728064 0.00876714 -0.00188398 -0.5649 -2.3158 0.4082 -0.00739333 0.00847038 -0.00253172 0.9159 -9.2044 0.2193 0.00656038 -0.00409691 0.000530146 0.0117 -4.1944 -0.0248 -0.0128076 0.00229592 0.000114561 0.0071 -2.3249 -0.0142 1.76527e-005 -9.13991e-006 1.0881e-005 0.6113 -8.7231 -2.0637 0.00760879 -0.00564793 0.00152595 -0.1927 -3.8059 -0.2383 -0.0163829 0.000896994 0.00167712 -0.1091 -2.1688 -0.1362 0.00571184 -0.00392672 0.00076201 -0.6151 -8.0947 -3.5641 0.0127634 -0.00826969 0.00188647 -0.4882 -2.341 -0.6462 -0.0126698 0.000164285 0.00558484 -0.3575 -1.7167 -0.4742 0.00428004 -0.00276385 0.000348642 -1.42 -1.8761 1.4223 -0.000366661 -0.0063945 0.00321765 -1.1471 -3.4929 2.6334 0.00587456 0.00780001 -0.00160401 -0.823 -2.3 1.6571 0.00609414 0.00810843 -0.00169577 -2.2603 21.606 7.4023 -0.87048 0.166982 7.04172 -13.5187 -1.1334 -5.0155 -10.8915 8.0946 -22.7054 0.0994 -28.0499 -0.2431 12.8241 -29.8939 4.47153 -0.0679 -23.3996 -0.1402 0.0656544 0.00563029 0.0444181 -0.7932 -9.0691 2.5189 0.0409119 0.0208579 0.00264706 0.8272 -3.3923 0.5977 0.027685 0.0094633 -0.000438959 0.565 -2.3158 0.4082 0.031906 0.0109098 -0.000518367 -0.916 -9.2044 0.2193 0.0290462 0.0123885 0.00603066 -0.0117 -4.1944 -0.0248 0.0354165 0.012049 0.00085203 -0.0071 -2.3249 -0.0142 0.0275846 0.00939895 0.000641441 -0.6113 -8.7231 -2.0637 0.0248475 0.00471077 -0.00325938 0.1927 -3.8059 -0.2383 0.0343286 0.013245 0.00193852 0.1091 -2.1688 -0.1362 0.0266607 0.0102322 0.00150158 0.6151 -8.0947 -3.564 0.0270123 0.00703859 0.000458374 0.4882 -2.341 -0.6462 0.0304057 0.0113283 0.00257853 0.3574 -1.7166 -0.4742 0.0526947 0.0196556 0.00446108 1.4199 -1.8761 1.4221 -0.00630216 0.0226059 0.00797131 1.1472 -3.4929 2.6336 -0.00222515 0.00512289 0.00162491 0.8229 -2.3 1.6571 -0.005527 0.0128438 0.00401734 -9.412 3.9771 -0.7758 -5.60089 3.09901 0.135384 -0.7531 -40.938 1.77636e-015 -0.00358801 0.00162365 0.00543367 0 -40.1986 0 5.59624 -3.30167 0.164657 1.77636e-015 -4.4182 9.239 5.54955e-005 7.68372e-006 -5.12176e-006 9.4119 3.9773 -0.7758 -0.67601 -0.376485 0.0077718 0.7532 -40.9383 -4.44089e-016 0.000667527 3.72052 0.00938788 1.77636e-015 -40.1986 8.88179e-016 0.66848 -3.54769 0.0257142 -1.77636e-015 -4.4182 9.239 5.93373e-005 -1.70831e-006 3.41542e-006 
4.69909 -0.365921 -1.74312 0 0 -0 4.44089e-015 78.7191 0 0.0181241 0.412866 -0.00668885 0 8.7983 -4.7612 0.449874 -0.10038 0.0909144 0 8.0291 0.4195 0.899919 -0.200045 0.182616 -8.88178e-016 9.9351 -2.2114 0.899919 -0.200045 0.182616 0 22.3885 -0.4656 0.0696243 0.90497 -0.0380148 -0.0001 12.643 3.4389 0.0485079 0.848409 -0.0442832 2.2603 21.606 7.4023 -0.0236919 0.0160307 -12.3619 13.5163 -1.1332 -5.0146 10.9748 3.71263 18.6073 -0.0995 -28.05 -0.2431 -16.7777 -35.0335 -1.92688 0.0679 -23.3996 -0.1402 0.0197041 0.0606548 0.297716 0.7932 -9.069 2.5189 0.0170992 -0.002061 0.00302565 -0.8272 -3.3923 0.5977 -0.0145808 0.0175439 -0.00377291 -0.5649 -2.3158 0.4082 -0.0148321 0.0169549 -0.00505282 0.9159 -9.2044 0.2193 0.0257819 -0.016082 0.00222221 0.0117 -4.1944 -0.0248 -0.0128207 0.00231463 0.000112577 0.0071 -2.3249 -0.0142 2.34019e-006 -8.30243e-006 2.04363e-005 0.6113 -8.7231 -2.0637 0.0299646 -0.0221715 0.00612237 -0.1927 -3.8059 -0.2383 -0.0167339 -0.00120703 0.00249711 -0.1091 -2.1688 -0.1362 0.0113517 -0.00781382 0.00151196 -0.6151 -8.0947 -3.5641 0.0502722 -0.032417 0.00752442 -0.4882 -2.341 -0.6462 -0.0128515 -0.00280437 0.00834678 -0.3575 -1.7167 -0.4742 0.00847849 -0.00549455 0.00069401 -1.42 -1.8761 1.4223 -0.00200078 -0.0309386 0.0163143 -1.1471 -3.4929 2.6334 0.0117402 0.0156035 -0.00323025 -0.823 -2.3 1.6571 0.0122269 0.0162054 -0.0033834 -2.2603 21.606 7.4023 -0.885865 0.170703 7.05065 -13.5187 -1.1334 -5.0155 -10.9191 8.15854 -22.6188 0.0994 -28.0499 -0.2431 13.0326 -30.0693 4.67119 -0.0679 -23.3996 -0.1402 0.25736 0.0250546 0.173708 -0.7932 -9.0691 2.5189 0.147851 0.10434 0.0169457 0.8272 -3.3923 0.5977 0.107605 0.0367932 -0.00177105 0.565 -2.3158 0.4082 0.124116 0.042453 -0.0020405 -0.916 -9.2044 0.2193 0.112852 0.0481762 0.0234648 -0.0117 -4.1944 -0.0248 0.137718 0.0468631 0.00323574 -0.0071 -2.3249 -0.0142 0.107306 0.0365192 0.0025151 -0.6113 -8.7231 -2.0637 0.0998555 0.0357205 0.0025188 0.1927 -3.8059 -0.2383 0.133602 0.0514993 0.00747933 0.1091 -2.1688 -0.1362 0.103592 0.0398658 0.00580812 0.6151 -8.0947 -3.564 0.10502 0.0273499 0.00173691 0.4882 -2.341 -0.6462 0.118213 0.0440614 0.00999065 0.3574 -1.7166 -0.4742 0.105398 0.0393076 0.00890747 1.4199 -1.8761 1.4221 -0.0242963 0.0880408 0.0300996 1.1472 -3.4929 2.6336 -0.00445514 0.0102269 0.00323617 0.8229 -2.3 1.6571 -0.0216521 0.0499367 0.015648 -9.412 3.9771 -0.7758 -5.60666 2.87612 0.140017 -0.7531 -40.938 0 -0.00509377 0.00980349 -0.00721751 0 -40.1986 8.88178e-016 5.59517 -3.29854 0.155603 1.77636e-015 -4.4182 9.239 5.25071e-005 5.97638e-006 -5.12289e-006 9.4119 3.9773 -0.7758 -0.683024 -0.356229 0.0104862 0.7532 -40.9383 0 0.000420502 3.43954 0.00683659 0 -40.1986 -8.88178e-016 0.665595 -3.49594 0.0264275 3.55271e-015 -4.4182 9.239 5.37876e-005 -8.53841e-006 -7.68385e-006 
4.69364 -0.368546 -1.78155 0 0 -0 4.44089e-015 78.7191 0 0.0307516 0.642076 -0.0131345 0 8.7983 -4.7612 0.442901 -0.162062 0.0938654 8.88179e-016 8.0291 0.4195 0.886073 -0.323395 0.188982 0 9.9351 -2.2114 0.886063 -0.323391 0.18898 0 22.3885 -0.4656 0.119829 1.46471 -0.0670786 -0.0001 12.643 3.4389 0.0705994 1.3432 -0.080796 2.2603 21.606 7.4023 -0.0488305 0.0341517 -12.1989 13.5163 -1.1332 -5.0146 10.9057 4.17672 19.0665 -0.0995 -28.05 -0.2431 -15.9743 -34.8646 -0.837359 0.0679 -23.3996 -0.1402 0.0417399 0.136885 0.64529 0.7932 -9.069 2.5189 0.04523 -0.00545822 0.00801749 -0.8272 -3.3923 0.5977 -0.0218549 0.0263267 -0.00566574 -0.5649 -2.3158 0.4082 -0.022261 0.0254557 -0.00758043 0.9159 -9.2044 0.2193 0.0627911 -0.0391509 0.00546 0.0117 -4.1944 -0.0248 -0.0128349 0.00231548 0.000120273 0.0071 -2.3249 -0.0142 1.72206e-005 3.97763e-006 1.94955e-005 0.6113 -8.7231 -2.0637 0.0628577 -0.0523129 0.0187775 -0.1927 -3.8059 -0.2383 -0.0170744 -0.003297 0.00330778 -0.1091 -2.1688 -0.1362 0.0170354 -0.011703 0.00226168 -0.6151 -8.0947 -3.5641 0.111254 -0.0717365 0.0166809 -0.4882 -2.341 -0.6462 -0.012961 -0.0057488 0.0110939 -0.3575 -1.7167 -0.4742 0.0126782 -0.0082203 0.00103426 -1.42 -1.8761 1.4223 -0.00362871 -0.0555086 0.0293995 -1.1471 -3.4929 2.6334 0.0176475 0.0233931 -0.00487354 -0.823 -2.3 1.6571 0.0297726 0.0394829 -0.00821995 -2.2603 21.606 7.4023 -0.907832 0.17611 7.06578 -13.5187 -1.1334 -5.0155 -10.9285 8.26019 -22.5302 0.0994 -28.0499 -0.2431 13.2739 -30.3778 4.79538 -0.0679 -23.3996 -0.1402 0.559929 0.0589644 0.380712 -0.7932 -9.0691 2.5189 0.323064 0.228017 0.0368543 0.8272 -3.3923 0.5977 0.235157 0.0804065 -0.00394918 0.565 -2.3158 0.4082 0.296066 0.101257 -0.00503351 -0.916 -9.2044 0.2193 0.246584 0.105287 0.0511795 -0.0117 -4.1944 -0.0248 0.300955 0.10239 0.00690209 -0.0071 -2.3249 -0.0142 0.255966 0.0870886 0.00590326 -0.6113 -8.7231 -2.0637 0.21818 0.0780702 0.0053883 0.1927 -3.8059 -0.2383 0.288171 0.108668 0.0130735 0.1091 -2.1688 -0.1362 0.247031 0.0951401 0.0137367 0.6151 -8.0947 -3.564 0.223666 0.0565119 0.0021733 0.4882 -2.341 -0.6462 0.258292 0.0963406 0.0217119 0.3574 -1.7166 -0.4742 0.251359 0.0937579 0.0211418 1.4199 -1.8761 1.4221 -0.053169 0.192339 0.0659411 1.1472 -3.4929 2.6336 -0.00667267 0.015354 0.00484195 0.8229 -2.3 1.6571 -0.0473422 0.109116 0.0342229 -9.412 3.9771 -0.7758 -5.61422 2.61387 0.145485 -0.7531 -40.938 0 -0.00544683 0.0447415 -0.0202924 -1.77636e-015 -40.1986 0 5.5897 -3.29925 0.1465 -1.77636e-015 -4.4182 9.239 5.07998e-005 -5.12236e-006 -1.7075e-005 9.4119 3.9773 -0.7758 -0.692658 -0.69976 0.00533025 0.7532 -40.9383 0 0.00104879 3.51659 0.0102688 1.77636e-015 -40.1986 0 0.66087 -3.45891 0.0284852 0 -4.4182 9.239 5.25074e-005 -1.7075e-005 4.26897e-006 
